ISO-10303-21;
HEADER;
FILE_DESCRIPTION (( 'STEP AP203' ),
    '1' );
FILE_NAME ('EXL1V0606.STEP',
    '2020-09-08T02:29:26',
    ( '' ),
    ( '' ),
    'SwSTEP 2.0',
    'SolidWorks 2016',
    '' );
FILE_SCHEMA (( 'CONFIG_CONTROL_DESIGN' ));
ENDSEC;

DATA;
#1 = FACE_OUTER_BOUND ( 'NONE', #83, .T. ) ;
#2 = ORIENTED_EDGE ( 'NONE', *, *, #183, .T. ) ;
#3 = DIRECTION ( 'NONE',  ( 1.000000000000000000, 0.0000000000000000000, 0.0000000000000000000 ) ) ;
#4 = VECTOR ( 'NONE', #460, 1000.000000000000000 ) ;
#5 = CC_DESIGN_PERSON_AND_ORGANIZATION_ASSIGNMENT ( #160, #265, ( #225 ) ) ;
#6 = ADVANCED_FACE ( 'NONE', ( #212 ), #438, .F. ) ;
#7 = DIRECTION ( 'NONE',  ( 1.000000000000000000, 0.0000000000000000000, 0.0000000000000000000 ) ) ;
#8 = DIRECTION ( 'NONE',  ( 0.0000000000000000000, 0.0000000000000000000, -1.000000000000000000 ) ) ;
#9 = DIRECTION ( 'NONE',  ( 0.0000000000000000000, -1.000000000000000000, 0.0000000000000000000 ) ) ;
#10 = VECTOR ( 'NONE', #548, 1000.000000000000000 ) ;
#11 = PRODUCT_DEFINITION ( 'UNKNOWN', '', #239, #622 ) ;
#12 = ADVANCED_FACE ( 'NONE', ( #532 ), #457, .F. ) ;
#13 = VERTEX_POINT ( 'NONE', #192 ) ;
#14 = ORIENTED_EDGE ( 'NONE', *, *, #405, .F. ) ;
#15 = CARTESIAN_POINT ( 'NONE',  ( 2.525000000000000400, 2.700000000000000200, -0.2000000000000000100 ) ) ;
#16 = COORDINATED_UNIVERSAL_TIME_OFFSET ( 8, 0, .AHEAD. ) ;
#17 = DIRECTION ( 'NONE',  ( 0.0000000000000000000, 0.0000000000000000000, 1.000000000000000000 ) ) ;
#18 = VECTOR ( 'NONE', #374, 1000.000000000000000 ) ;
#19 = DIRECTION ( 'NONE',  ( 0.0000000000000000000, 0.0000000000000000000, -1.000000000000000000 ) ) ;
#20 = CARTESIAN_POINT ( 'NONE',  ( 2.525000000000000400, 2.700000000000000200, 0.0000000000000000000 ) ) ;
#21 = VECTOR ( 'NONE', #558, 1000.000000000000000 ) ;
#22 = CARTESIAN_POINT ( 'NONE',  ( 3.599999999999998800, 2.950000000000000200, 5.799999999999999800 ) ) ;
#23 = EDGE_CURVE ( 'NONE', #201, #37, #315, .T. ) ;
#24 = MANIFOLD_SOLID_BREP ( 'Boss-Extrude2', #431 ) ;
#25 = ORIENTED_EDGE ( 'NONE', *, *, #638, .F. ) ;
#26 = ORIENTED_EDGE ( 'NONE', *, *, #335, .T. ) ;
#27 = DATE_AND_TIME ( #229, #71 ) ;
#28 = APPROVAL_PERSON_ORGANIZATION ( #541, #79, #262 ) ;
#29 = AXIS2_PLACEMENT_3D ( 'NONE', #266, #198, #255 ) ;
#30 = VECTOR ( 'NONE', #363, 1000.000000000000000 ) ;
#31 = ORIENTED_EDGE ( 'NONE', *, *, #429, .T. ) ;
#32 = EDGE_CURVE ( 'NONE', #305, #479, #388, .T. ) ;
#33 = VECTOR ( 'NONE', #244, 1000.000000000000000 ) ;
#34 = AXIS2_PLACEMENT_3D ( 'NONE', #186, #643, #651 ) ;
#35 = DIRECTION ( 'NONE',  ( 1.000000000000000000, -0.0000000000000000000, 0.0000000000000000000 ) ) ;
#36 = VERTEX_POINT ( 'NONE', #351 ) ;
#37 = VERTEX_POINT ( 'NONE', #303 ) ;
#38 = CARTESIAN_POINT ( 'NONE',  ( 2.525000000000000400, 1.300000000000000000, 0.0000000000000000000 ) ) ;
#39 = VERTEX_POINT ( 'NONE', #658 ) ;
#40 = AXIS2_PLACEMENT_3D ( 'NONE', #395, #456, #454 ) ;
#41 = DIRECTION ( 'NONE',  ( -0.0000000000000000000, -0.0000000000000000000, 1.000000000000000000 ) ) ;
#42 = ADVANCED_FACE ( 'NONE', ( #273 ), #642, .F. ) ;
#43 = DIRECTION ( 'NONE',  ( -0.0000000000000000000, 0.0000000000000000000, -1.000000000000000000 ) ) ;
#44 = EDGE_CURVE ( 'NONE', #427, #346, #519, .T. ) ;
#45 = LINE ( 'NONE', #161, #526 ) ;
#46 = ORIENTED_EDGE ( 'NONE', *, *, #612, .F. ) ;
#47 = ADVANCED_FACE ( 'NONE', ( #56 ), #493, .F. ) ;
#48 = VERTEX_POINT ( 'NONE', #356 ) ;
#49 = PLANE ( 'NONE',  #522 ) ;
#50 = COORDINATED_UNIVERSAL_TIME_OFFSET ( 8, 0, .AHEAD. ) ;
#51 = FACE_OUTER_BOUND ( 'NONE', #107, .T. ) ;
#52 = CARTESIAN_POINT ( 'NONE',  ( -3.100000000000001000, 2.950000000000000200, 5.799999999999999800 ) ) ;
#53 = DIRECTION ( 'NONE',  ( -1.000000000000000000, 0.0000000000000000000, 0.0000000000000000000 ) ) ;
#54 = EDGE_CURVE ( 'NONE', #410, #156, #357, .T. ) ;
#55 = FACE_OUTER_BOUND ( 'NONE', #263, .T. ) ;
#56 = FACE_OUTER_BOUND ( 'NONE', #403, .T. ) ;
#57 = PERSON_AND_ORGANIZATION_ROLE ( 'creator' ) ;
#58 = ORIENTED_EDGE ( 'NONE', *, *, #612, .T. ) ;
#59 = CARTESIAN_POINT ( 'NONE',  ( -3.600000000000001400, 3.450000000000000200, 5.799999999999999800 ) ) ;
#60 = DIRECTION ( 'NONE',  ( -1.000000000000000000, 0.0000000000000000000, 0.0000000000000000000 ) ) ;
#61 = APPROVAL_ROLE ( '' ) ;
#62 = DIRECTION ( 'NONE',  ( 0.0000000000000000000, 0.0000000000000000000, -1.000000000000000000 ) ) ;
#63 = APPLICATION_PROTOCOL_DEFINITION ( 'international standard', 'config_control_design', 1994, #619 ) ;
#64 = PLANE ( 'NONE',  #586 ) ;
#65 = DIRECTION ( 'NONE',  ( -0.0000000000000000000, 0.0000000000000000000, 1.000000000000000000 ) ) ;
#66 = CIRCLE ( 'NONE', #373, 0.5000000000000000000 ) ;
#67 = VERTEX_POINT ( 'NONE', #562 ) ;
#68 = EDGE_LOOP ( 'NONE', ( #637, #90, #636, #125 ) ) ;
#69 = DIRECTION ( 'NONE',  ( -0.0000000000000000000, 0.0000000000000000000, 1.000000000000000000 ) ) ;
#70 = CARTESIAN_POINT ( 'NONE',  ( 0.0000000000000000000, 0.0000000000000000000, 5.799999999999999800 ) ) ;
#71 = LOCAL_TIME ( 10, 29, 26.00000000000000000, #50 ) ;
#72 = PLANE ( 'NONE',  #218 ) ;
#73 = EDGE_CURVE ( 'NONE', #39, #466, #581, .T. ) ;
#74 = DIRECTION ( 'NONE',  ( 0.0000000000000000000, -1.000000000000000000, -0.0000000000000000000 ) ) ;
#75 = VECTOR ( 'NONE', #631, 1000.000000000000000 ) ;
#76 = ORIENTED_EDGE ( 'NONE', *, *, #54, .F. ) ;
#77 = PLANE ( 'NONE',  #425 ) ;
#78 = ORIENTED_EDGE ( 'NONE', *, *, #433, .F. ) ;
#79 = APPROVAL ( #623, 'UNSPECIFIED' ) ;
#80 = FACE_OUTER_BOUND ( 'NONE', #603, .T. ) ;
#81 = ORIENTED_EDGE ( 'NONE', *, *, #485, .F. ) ;
#82 = EDGE_CURVE ( 'NONE', #189, #67, #550, .T. ) ;
#83 = EDGE_LOOP ( 'NONE', ( #147, #477, #385, #252 ) ) ;
#84 = LINE ( 'NONE', #561, #4 ) ;
#85 = CC_DESIGN_APPROVAL ( #437, ( #239 ) ) ;
#86 = CARTESIAN_POINT ( 'NONE',  ( 2.525000000000000400, 2.700000000000000200, -0.2000000000000000100 ) ) ;
#87 = LINE ( 'NONE', #171, #463 ) ;
#88 = ORIENTED_EDGE ( 'NONE', *, *, #382, .T. ) ;
#89 = DIRECTION ( 'NONE',  ( -0.0000000000000000000, 1.000000000000000000, -0.0000000000000000000 ) ) ;
#90 = ORIENTED_EDGE ( 'NONE', *, *, #102, .F. ) ;
#91 = EDGE_CURVE ( 'NONE', #594, #435, #434, .T. ) ;
#92 = CARTESIAN_POINT ( 'NONE',  ( 3.599999999999998800, 2.950000000000000200, 0.0000000000000000000 ) ) ;
#93 = CARTESIAN_POINT ( 'NONE',  ( -3.600000000000001400, 2.950000000000000200, 5.799999999999999800 ) ) ;
#94 = ADVANCED_FACE ( 'NONE', ( #95, #476, #600 ), #64, .F. ) ;
#95 = FACE_BOUND ( 'NONE', #68, .T. ) ;
#96 = EDGE_LOOP ( 'NONE', ( #574, #375, #358, #446 ) ) ;
#97 = CARTESIAN_POINT ( 'NONE',  ( 0.0000000000000000000, 0.0000000000000000000, -0.2000000000000000100 ) ) ;
#98 = DIRECTION ( 'NONE',  ( -1.257045997084642900E-016, 1.000000000000000000, 0.0000000000000000000 ) ) ;
#99 = CARTESIAN_POINT ( 'NONE',  ( 3.599999999999998800, 3.450000000000000200, 5.799999999999999800 ) ) ;
#100 = FACE_OUTER_BOUND ( 'NONE', #592, .T. ) ;
#101 = CARTESIAN_POINT ( 'NONE',  ( -3.100000000000000500, -3.450000000000000200, 0.0000000000000000000 ) ) ;
#102 = EDGE_CURVE ( 'NONE', #13, #220, #442, .T. ) ;
#103 = VECTOR ( 'NONE', #617, 1000.000000000000000 ) ;
#104 = DIRECTION ( 'NONE',  ( 0.0000000000000000000, 1.000000000000000000, 0.0000000000000000000 ) ) ;
#105 = CARTESIAN_POINT ( 'NONE',  ( -3.100000000000000500, -3.450000000000000200, 5.799999999999999800 ) ) ;
#106 = VERTEX_POINT ( 'NONE', #260 ) ;
#107 = EDGE_LOOP ( 'NONE', ( #501, #528, #445, #645 ) ) ;
#108 = DIRECTION ( 'NONE',  ( -0.0000000000000000000, 0.0000000000000000000, 1.000000000000000000 ) ) ;
#109 = LINE ( 'NONE', #607, #277 ) ;
#110 = APPROVAL_STATUS ( 'not_yet_approved' ) ;
#111 = CARTESIAN_POINT ( 'NONE',  ( 2.525000000000000400, 2.700000000000000200, -0.2000000000000000100 ) ) ;
#112 = CARTESIAN_POINT ( 'NONE',  ( -3.100000000000001000, 3.450000000000000200, 5.799999999999999800 ) ) ;
#113 = VECTOR ( 'NONE', #415, 1000.000000000000000 ) ;
#114 = PERSON_AND_ORGANIZATION_ROLE ( 'design_supplier' ) ;
#115 = VERTEX_POINT ( 'NONE', #514 ) ;
#116 = CARTESIAN_POINT ( 'NONE',  ( 3.099999999999999200, -3.450000000000000200, 5.799999999999999800 ) ) ;
#117 = ORIENTED_EDGE ( 'NONE', *, *, #82, .T. ) ;
#118 = EDGE_CURVE ( 'NONE', #228, #39, #227, .T. ) ;
#119 = LOCAL_TIME ( 10, 29, 26.00000000000000000, #142 ) ;
#120 = LOCAL_TIME ( 10, 29, 26.00000000000000000, #245 ) ;
#121 = DIRECTION ( 'NONE',  ( 0.0000000000000000000, -0.0000000000000000000, -1.000000000000000000 ) ) ;
#122 = CARTESIAN_POINT ( 'NONE',  ( -2.774999999999999500, -1.300000000000000000, -0.2000000000000000100 ) ) ;
#123 = FACE_OUTER_BOUND ( 'NONE', #486, .T. ) ;
#124 = EDGE_LOOP ( 'NONE', ( #533, #361, #420, #281 ) ) ;
#125 = ORIENTED_EDGE ( 'NONE', *, *, #391, .F. ) ;
#126 = DIRECTION ( 'NONE',  ( -0.0000000000000000000, -0.0000000000000000000, 1.000000000000000000 ) ) ;
#127 = CIRCLE ( 'NONE', #253, 0.5000000000000000000 ) ;
#128 = EDGE_CURVE ( 'NONE', #37, #427, #132, .T. ) ;
#129 = VERTEX_POINT ( 'NONE', #116 ) ;
#130 = APPROVAL_DATE_TIME ( #267, #79 ) ;
#131 = CARTESIAN_POINT ( 'NONE',  ( 2.525000000000000400, 1.300000000000000000, -0.2000000000000000100 ) ) ;
#132 = LINE ( 'NONE', #206, #103 ) ;
#133 = EDGE_LOOP ( 'NONE', ( #588, #178, #467, #76 ) ) ;
#134 = ORIENTED_EDGE ( 'NONE', *, *, #590, .T. ) ;
#135 = PLANE ( 'NONE',  #537 ) ;
#136 = VECTOR ( 'NONE', #104, 1000.000000000000000 ) ;
#137 = CARTESIAN_POINT ( 'NONE',  ( 2.525000000000000400, -2.700000000000000200, -0.2000000000000000100 ) ) ;
#138 = ORIENTED_EDGE ( 'NONE', *, *, #23, .T. ) ;
#139 = CARTESIAN_POINT ( 'NONE',  ( -3.100000000000000500, -2.950000000000000200, 0.0000000000000000000 ) ) ;
#140 = ORIENTED_EDGE ( 'NONE', *, *, #580, .T. ) ;
#141 = ORIENTED_EDGE ( 'NONE', *, *, #441, .F. ) ;
#142 = COORDINATED_UNIVERSAL_TIME_OFFSET ( 8, 0, .AHEAD. ) ;
#143 = EDGE_CURVE ( 'NONE', #115, #222, #452, .T. ) ;
#144 = DIRECTION ( 'NONE',  ( -1.000000000000000000, 0.0000000000000000000, -0.0000000000000000000 ) ) ;
#145 = CARTESIAN_POINT ( 'NONE',  ( 2.525000000000000400, 1.300000000000000000, -0.2000000000000000100 ) ) ;
#146 = LINE ( 'NONE', #217, #336 ) ;
#147 = ORIENTED_EDGE ( 'NONE', *, *, #515, .T. ) ;
#148 = CARTESIAN_POINT ( 'NONE',  ( -3.600000000000000500, -3.450000000000000200, 5.799999999999999800 ) ) ;
#149 = CARTESIAN_POINT ( 'NONE',  ( 2.525000000000000400, 1.300000000000000000, -0.2000000000000000100 ) ) ;
#150 = CC_DESIGN_DATE_AND_TIME_ASSIGNMENT ( #300, #259, ( #349 ) ) ;
#151 = CARTESIAN_POINT ( 'NONE',  ( -3.600000000000000500, -2.950000000000000600, 5.799999999999999800 ) ) ;
#152 = FACE_OUTER_BOUND ( 'NONE', #124, .T. ) ;
#153 = PLANE ( 'NONE',  #655 ) ;
#154 = LINE ( 'NONE', #199, #295 ) ;
#155 = CARTESIAN_POINT ( 'NONE',  ( -3.100000000000000500, -2.950000000000000200, 5.799999999999999800 ) ) ;
#156 = VERTEX_POINT ( 'NONE', #615 ) ;
#157 = ORIENTED_EDGE ( 'NONE', *, *, #475, .T. ) ;
#158 =( NAMED_UNIT ( * ) PLANE_ANGLE_UNIT ( ) SI_UNIT ( $, .RADIAN. ) );
#159 = ADVANCED_FACE ( 'NONE', ( #80 ), #153, .F. ) ;
#160 = PERSON_AND_ORGANIZATION ( #470, #301 ) ;
#161 = CARTESIAN_POINT ( 'NONE',  ( 2.525000000000000400, 2.700000000000000200, -0.2000000000000000100 ) ) ;
#162 = DIRECTION ( 'NONE',  ( 1.000000000000000000, 0.0000000000000000000, 0.0000000000000000000 ) ) ;
#163 = AXIS2_PLACEMENT_3D ( 'NONE', #15, #411, #69 ) ;
#164 = VECTOR ( 'NONE', #314, 1000.000000000000000 ) ;
#165 = ORIENTED_EDGE ( 'NONE', *, *, #471, .F. ) ;
#166 = CARTESIAN_POINT ( 'NONE',  ( 0.0000000000000000000, 0.0000000000000000000, -0.2000000000000000100 ) ) ;
#167 = CARTESIAN_POINT ( 'NONE',  ( 3.599999999999998800, 3.450000000000000200, 5.799999999999999800 ) ) ;
#168 = EDGE_CURVE ( 'NONE', #466, #594, #618, .T. ) ;
#169 = CALENDAR_DATE ( 2020, 8, 9 ) ;
#170 = VECTOR ( 'NONE', #569, 1000.000000000000000 ) ;
#171 = CARTESIAN_POINT ( 'NONE',  ( 2.525000000000000400, 1.300000000000000000, 0.0000000000000000000 ) ) ;
#172 = CIRCLE ( 'NONE', #547, 0.5000000000000000000 ) ;
#173 = EDGE_LOOP ( 'NONE', ( #527, #298, #175, #299 ) ) ;
#174 = EDGE_LOOP ( 'NONE', ( #352, #584, #296, #134 ) ) ;
#175 = ORIENTED_EDGE ( 'NONE', *, *, #626, .F. ) ;
#176 = AXIS2_PLACEMENT_3D ( 'NONE', #149, #653, #451 ) ;
#177 = FACE_OUTER_BOUND ( 'NONE', #133, .T. ) ;
#178 = ORIENTED_EDGE ( 'NONE', *, *, #310, .F. ) ;
#179 = CARTESIAN_POINT ( 'NONE',  ( -3.600000000000001400, 2.950000000000000200, 5.799999999999999800 ) ) ;
#180 = LINE ( 'NONE', #195, #33 ) ;
#181 = FACE_OUTER_BOUND ( 'NONE', #377, .T. ) ;
#182 = ORIENTED_EDGE ( 'NONE', *, *, #128, .F. ) ;
#183 = EDGE_CURVE ( 'NONE', #513, #305, #635, .T. ) ;
#184 = EDGE_LOOP ( 'NONE', ( #545, #630, #379, #46 ) ) ;
#185 = EDGE_LOOP ( 'NONE', ( #338, #334, #78, #620 ) ) ;
#186 = CARTESIAN_POINT ( 'NONE',  ( 3.099999999999999600, -2.950000000000000600, 5.799999999999999800 ) ) ;
#187 = LINE ( 'NONE', #417, #18 ) ;
#188 = CARTESIAN_POINT ( 'NONE',  ( -2.774999999999999500, -1.300000000000000000, 0.0000000000000000000 ) ) ;
#189 = VERTEX_POINT ( 'NONE', #559 ) ;
#190 = VERTEX_POINT ( 'NONE', #204 ) ;
#191 = AXIS2_PLACEMENT_3D ( 'NONE', #572, #529, #279 ) ;
#192 = CARTESIAN_POINT ( 'NONE',  ( -2.774999999999999500, 2.700000000000000200, 0.0000000000000000000 ) ) ;
#193 = PERSON_AND_ORGANIZATION ( #470, #301 ) ;
#194 = VECTOR ( 'NONE', #543, 1000.000000000000000 ) ;
#195 = CARTESIAN_POINT ( 'NONE',  ( 2.525000000000000400, -1.300000000000000000, -0.0000000000000000000 ) ) ;
#196 = DIRECTION ( 'NONE',  ( -1.000000000000000000, -1.257045997084642900E-016, 0.0000000000000000000 ) ) ;
#197 = DIRECTION ( 'NONE',  ( -0.0000000000000000000, -0.0000000000000000000, 1.000000000000000000 ) ) ;
#198 = DIRECTION ( 'NONE',  ( 0.0000000000000000000, 0.0000000000000000000, -1.000000000000000000 ) ) ;
#199 = CARTESIAN_POINT ( 'NONE',  ( -2.774999999999999500, 2.700000000000000200, -0.2000000000000000100 ) ) ;
#200 = VECTOR ( 'NONE', #278, 1000.000000000000000 ) ;
#201 = VERTEX_POINT ( 'NONE', #567 ) ;
#202 = DIRECTION ( 'NONE',  ( -0.0000000000000000000, 0.0000000000000000000, 1.000000000000000000 ) ) ;
#203 = VERTEX_POINT ( 'NONE', #367 ) ;
#204 = CARTESIAN_POINT ( 'NONE',  ( 2.525000000000000400, -1.300000000000000000, 0.0000000000000000000 ) ) ;
#205 = CARTESIAN_POINT ( 'NONE',  ( 3.099999999999999600, -2.950000000000000600, 5.799999999999999800 ) ) ;
#206 = CARTESIAN_POINT ( 'NONE',  ( 3.599999999999998800, 3.450000000000000200, 0.0000000000000000000 ) ) ;
#207 = ADVANCED_FACE ( 'NONE', ( #177 ), #609, .T. ) ;
#208 = APPLICATION_PROTOCOL_DEFINITION ( 'international standard', 'config_control_design', 1994, #565 ) ;
#209 = DIRECTION ( 'NONE',  ( 1.000000000000000000, -0.0000000000000000000, -0.0000000000000000000 ) ) ;
#210 = VECTOR ( 'NONE', #484, 1000.000000000000000 ) ;
#211 = ORIENTED_EDGE ( 'NONE', *, *, #73, .T. ) ;
#212 = FACE_OUTER_BOUND ( 'NONE', #173, .T. ) ;
#213 =( LENGTH_UNIT ( ) NAMED_UNIT ( * ) SI_UNIT ( .MILLI., .METRE. ) );
#214 = AXIS2_PLACEMENT_3D ( 'NONE', #506, #540, #249 ) ;
#215 = LINE ( 'NONE', #508, #231 ) ;
#216 = APPROVAL_ROLE ( '' ) ;
#217 = CARTESIAN_POINT ( 'NONE',  ( 3.099999999999998300, 3.450000000000000200, 5.799999999999999800 ) ) ;
#218 = AXIS2_PLACEMENT_3D ( 'NONE', #421, #74, #578 ) ;
#219 = VECTOR ( 'NONE', #627, 1000.000000000000000 ) ;
#220 = VERTEX_POINT ( 'NONE', #413 ) ;
#221 = CARTESIAN_POINT ( 'NONE',  ( -2.774999999999999500, -1.300000000000000000, -0.2000000000000000100 ) ) ;
#222 = VERTEX_POINT ( 'NONE', #112 ) ;
#223 = PLANE ( 'NONE',  #270 ) ;
#224 = EDGE_CURVE ( 'NONE', #513, #220, #45, .T. ) ;
#225 = PRODUCT ( 'EXL1V0606', 'EXL1V0606', '', ( #524 ) ) ;
#226 = CALENDAR_DATE ( 2020, 8, 9 ) ;
#227 = LINE ( 'NONE', #151, #113 ) ;
#228 = VERTEX_POINT ( 'NONE', #518 ) ;
#229 = CALENDAR_DATE ( 2020, 8, 9 ) ;
#230 = CC_DESIGN_PERSON_AND_ORGANIZATION_ASSIGNMENT ( #577, #57, ( #239 ) ) ;
#231 = VECTOR ( 'NONE', #602, 1000.000000000000000 ) ;
#232 = FACE_OUTER_BOUND ( 'NONE', #174, .T. ) ;
#233 = CARTESIAN_POINT ( 'NONE',  ( -3.600000000000001400, 3.450000000000000200, 5.799999999999999800 ) ) ;
#234 = ORIENTED_EDGE ( 'NONE', *, *, #44, .T. ) ;
#235 = ORIENTED_EDGE ( 'NONE', *, *, #554, .T. ) ;
#236 = CYLINDRICAL_SURFACE ( 'NONE', #34, 0.5000000000000000000 ) ;
#237 = CARTESIAN_POINT ( 'NONE',  ( -3.600000000000001400, 3.450000000000000200, 0.0000000000000000000 ) ) ;
#238 = LINE ( 'NONE', #329, #200 ) ;
#239 = PRODUCT_DEFINITION_FORMATION_WITH_SPECIFIED_SOURCE ( 'ANY', '', #225, .NOT_KNOWN. ) ;
#240 = ORIENTED_EDGE ( 'NONE', *, *, #364, .F. ) ;
#241 = ORIENTED_EDGE ( 'NONE', *, *, #91, .F. ) ;
#242 = ADVANCED_FACE ( 'NONE', ( #272 ), #488, .T. ) ;
#243 = CALENDAR_DATE ( 2020, 8, 9 ) ;
#244 = DIRECTION ( 'NONE',  ( 1.000000000000000000, -0.0000000000000000000, -0.0000000000000000000 ) ) ;
#245 = COORDINATED_UNIVERSAL_TIME_OFFSET ( 8, 0, .AHEAD. ) ;
#246 = DIRECTION ( 'NONE',  ( -1.000000000000000000, 0.0000000000000000000, 0.0000000000000000000 ) ) ;
#247 = VECTOR ( 'NONE', #60, 1000.000000000000000 ) ;
#248 = DIRECTION ( 'NONE',  ( 1.000000000000000000, 0.0000000000000000000, 0.0000000000000000000 ) ) ;
#249 = DIRECTION ( 'NONE',  ( 0.0000000000000000000, -0.0000000000000000000, -1.000000000000000000 ) ) ;
#250 = ORIENTED_EDGE ( 'NONE', *, *, #343, .T. ) ;
#251 = ADVANCED_FACE ( 'NONE', ( #55 ), #77, .F. ) ;
#252 = ORIENTED_EDGE ( 'NONE', *, *, #376, .T. ) ;
#253 = AXIS2_PLACEMENT_3D ( 'NONE', #392, #202, #400 ) ;
#254 = CARTESIAN_POINT ( 'NONE',  ( 3.099999999999998300, 2.950000000000000200, 5.799999999999999800 ) ) ;
#255 = DIRECTION ( 'NONE',  ( -1.000000000000000000, 0.0000000000000000000, 0.0000000000000000000 ) ) ;
#256 = FACE_OUTER_BOUND ( 'NONE', #96, .T. ) ;
#257 = DIRECTION ( 'NONE',  ( -1.000000000000000000, -0.0000000000000000000, -0.0000000000000000000 ) ) ;
#258 = EDGE_CURVE ( 'NONE', #201, #346, #419, .T. ) ;
#259 = DATE_TIME_ROLE ( 'classification_date' ) ;
#260 = CARTESIAN_POINT ( 'NONE',  ( 2.525000000000000400, -2.700000000000000200, -0.0000000000000000000 ) ) ;
#261 = VECTOR ( 'NONE', #660, 1000.000000000000000 ) ;
#262 = APPROVAL_ROLE ( '' ) ;
#263 = EDGE_LOOP ( 'NONE', ( #250, #582, #165, #401 ) ) ;
#264 = DIRECTION ( 'NONE',  ( 1.000000000000000000, 0.0000000000000000000, 0.0000000000000000000 ) ) ;
#265 = PERSON_AND_ORGANIZATION_ROLE ( 'design_owner' ) ;
#266 = CARTESIAN_POINT ( 'NONE',  ( -3.100000000000001000, 2.950000000000000200, 5.799999999999999800 ) ) ;
#267 = DATE_AND_TIME ( #535, #416 ) ;
#268 = CARTESIAN_POINT ( 'NONE',  ( 2.525000000000000400, -2.700000000000000200, -0.2000000000000000100 ) ) ;
#269 = CARTESIAN_POINT ( 'NONE',  ( 3.099999999999999600, -2.950000000000000600, 0.0000000000000000000 ) ) ;
#270 = AXIS2_PLACEMENT_3D ( 'NONE', #166, #428, #144 ) ;
#271 = DIRECTION ( 'NONE',  ( 0.0000000000000000000, 0.0000000000000000000, 1.000000000000000000 ) ) ;
#272 = FACE_OUTER_BOUND ( 'NONE', #185, .T. ) ;
#273 = FACE_OUTER_BOUND ( 'NONE', #430, .T. ) ;
#274 = ORIENTED_EDGE ( 'NONE', *, *, #648, .F. ) ;
#275 = CARTESIAN_POINT ( 'NONE',  ( 2.525000000000000400, 1.300000000000000000, -0.2000000000000000100 ) ) ;
#276 = EDGE_CURVE ( 'NONE', #220, #479, #536, .T. ) ;
#277 = VECTOR ( 'NONE', #197, 1000.000000000000000 ) ;
#278 = DIRECTION ( 'NONE',  ( -0.0000000000000000000, -0.0000000000000000000, 1.000000000000000000 ) ) ;
#279 = DIRECTION ( 'NONE',  ( 1.000000000000000000, 0.0000000000000000000, 0.0000000000000000000 ) ) ;
#280 = VERTEX_POINT ( 'NONE', #625 ) ;
#281 = ORIENTED_EDGE ( 'NONE', *, *, #485, .T. ) ;
#282 = VERTEX_POINT ( 'NONE', #483 ) ;
#283 = AXIS2_PLACEMENT_3D ( 'NONE', #312, #362, #53 ) ;
#284 = LINE ( 'NONE', #512, #633 ) ;
#285 = EDGE_CURVE ( 'NONE', #203, #513, #350, .T. ) ;
#286 = CIRCLE ( 'NONE', #191, 0.5000000000000000000 ) ;
#287 = EDGE_LOOP ( 'NONE', ( #412, #629, #555, #650 ) ) ;
#288 = VERTEX_POINT ( 'NONE', #331 ) ;
#289 = DIRECTION ( 'NONE',  ( -0.0000000000000000000, -0.0000000000000000000, 1.000000000000000000 ) ) ;
#290 = AXIS2_PLACEMENT_3D ( 'NONE', #583, #121, #634 ) ;
#291 = VECTOR ( 'NONE', #450, 1000.000000000000000 ) ;
#292 = DIRECTION ( 'NONE',  ( 1.000000000000000000, 1.257045997084642900E-016, -0.0000000000000000000 ) ) ;
#293 = DIRECTION ( 'NONE',  ( 0.0000000000000000000, -0.0000000000000000000, -1.000000000000000000 ) ) ;
#294 = EDGE_CURVE ( 'NONE', #288, #427, #286, .T. ) ;
#295 = VECTOR ( 'NONE', #89, 1000.000000000000000 ) ;
#296 = ORIENTED_EDGE ( 'NONE', *, *, #661, .F. ) ;
#297 = DIRECTION ( 'NONE',  ( -1.000000000000000000, -0.0000000000000000000, -0.0000000000000000000 ) ) ;
#298 = ORIENTED_EDGE ( 'NONE', *, *, #118, .T. ) ;
#299 = ORIENTED_EDGE ( 'NONE', *, *, #54, .T. ) ;
#300 = DATE_AND_TIME ( #226, #119 ) ;
#301 = ORGANIZATION ( 'UNSPECIFIED', 'UNSPECIFIED', '' ) ;
#302 = CARTESIAN_POINT ( 'NONE',  ( 2.525000000000000400, 2.700000000000000200, -0.2000000000000000100 ) ) ;
#303 = CARTESIAN_POINT ( 'NONE',  ( 3.599999999999999600, -2.949999999999998800, 0.0000000000000000000 ) ) ;
#304 = VECTOR ( 'NONE', #289, 1000.000000000000000 ) ;
#305 = VERTEX_POINT ( 'NONE', #275 ) ;
#306 = LOCAL_TIME ( 10, 29, 26.00000000000000000, #523 ) ;
#307 = DIRECTION ( 'NONE',  ( 0.0000000000000000000, 0.0000000000000000000, -1.000000000000000000 ) ) ;
#308 = CARTESIAN_POINT ( 'NONE',  ( -2.774999999999999500, -2.700000000000000200, -0.2000000000000000100 ) ) ;
#309 = VECTOR ( 'NONE', #3, 1000.000000000000000 ) ;
#310 = EDGE_CURVE ( 'NONE', #282, #222, #587, .T. ) ;
#311 = DIRECTION ( 'NONE',  ( -1.000000000000000000, 0.0000000000000000000, 0.0000000000000000000 ) ) ;
#312 = CARTESIAN_POINT ( 'NONE',  ( -3.100000000000000500, -2.950000000000000200, 5.799999999999999800 ) ) ;
#313 = FACE_OUTER_BOUND ( 'NONE', #487, .T. ) ;
#314 = DIRECTION ( 'NONE',  ( 1.000000000000000000, 0.0000000000000000000, 0.0000000000000000000 ) ) ;
#315 = LINE ( 'NONE', #396, #10 ) ;
#316 = ORIENTED_EDGE ( 'NONE', *, *, #534, .T. ) ;
#317 = ORIENTED_EDGE ( 'NONE', *, *, #638, .T. ) ;
#318 = DIRECTION ( 'NONE',  ( -0.0000000000000000000, 0.0000000000000000000, 1.000000000000000000 ) ) ;
#319 = DIRECTION ( 'NONE',  ( 1.000000000000000000, 0.0000000000000000000, 0.0000000000000000000 ) ) ;
#320 = CC_DESIGN_PERSON_AND_ORGANIZATION_ASSIGNMENT ( #432, #114, ( #239 ) ) ;
#321 = PERSON_AND_ORGANIZATION_ROLE ( 'classification_officer' ) ;
#322 = CARTESIAN_POINT ( 'NONE',  ( 2.525000000000000400, 2.700000000000000200, 0.0000000000000000000 ) ) ;
#323 = VECTOR ( 'NONE', #579, 1000.000000000000000 ) ;
#324 = DIRECTION ( 'NONE',  ( 1.000000000000000000, 0.0000000000000000000, 0.0000000000000000000 ) ) ;
#325 = EDGE_CURVE ( 'NONE', #48, #190, #238, .T. ) ;
#326 = UNCERTAINTY_MEASURE_WITH_UNIT (LENGTH_MEASURE( 1.000000000000000100E-005 ), #213, 'distance_accuracy_value', 'NONE');
#327 = CARTESIAN_POINT ( 'NONE',  ( 2.525000000000000400, -2.700000000000000200, -0.2000000000000000100 ) ) ;
#328 = VECTOR ( 'NONE', #649, 1000.000000000000000 ) ;
#329 = CARTESIAN_POINT ( 'NONE',  ( 2.525000000000000400, -1.300000000000000000, -0.2000000000000000100 ) ) ;
#330 = AXIS2_PLACEMENT_3D ( 'NONE', #97, #43, #311 ) ;
#331 = CARTESIAN_POINT ( 'NONE',  ( 3.099999999999998300, 3.450000000000000200, 0.0000000000000000000 ) ) ;
#332 = ORIENTED_EDGE ( 'NONE', *, *, #542, .T. ) ;
#333 = ORIENTED_EDGE ( 'NONE', *, *, #525, .T. ) ;
#334 = ORIENTED_EDGE ( 'NONE', *, *, #118, .F. ) ;
#335 = EDGE_CURVE ( 'NONE', #115, #288, #146, .T. ) ;
#336 = VECTOR ( 'NONE', #19, 1000.000000000000000 ) ;
#337 = ORIENTED_EDGE ( 'NONE', *, *, #525, .F. ) ;
#338 = ORIENTED_EDGE ( 'NONE', *, *, #73, .F. ) ;
#339 = CC_DESIGN_APPROVAL ( #79, ( #11 ) ) ;
#340 = DATE_AND_TIME ( #243, #120 ) ;
#341 = CIRCLE ( 'NONE', #606, 0.5000000000000000000 ) ;
#342 = PLANE ( 'NONE',  #507 ) ;
#343 = EDGE_CURVE ( 'NONE', #190, #106, #187, .T. ) ;
#344 = VECTOR ( 'NONE', #126, 1000.000000000000000 ) ;
#345 = VERTEX_POINT ( 'NONE', #221 ) ;
#346 = VERTEX_POINT ( 'NONE', #22 ) ;
#347 = CARTESIAN_POINT ( 'NONE',  ( -2.774999999999999500, -2.700000000000000200, -0.2000000000000000100 ) ) ;
#348 = DIRECTION ( 'NONE',  ( 0.0000000000000000000, -0.0000000000000000000, 1.000000000000000000 ) ) ;
#349 = SECURITY_CLASSIFICATION ( '', '', #468 ) ;
#350 = LINE ( 'NONE', #407, #210 ) ;
#351 = CARTESIAN_POINT ( 'NONE',  ( -2.774999999999999500, 1.300000000000000000, -0.2000000000000000100 ) ) ;
#352 = ORIENTED_EDGE ( 'NONE', *, *, #418, .T. ) ;
#353 = LINE ( 'NONE', #516, #136 ) ;
#354 = DIRECTION ( 'NONE',  ( 0.0000000000000000000, 0.0000000000000000000, -1.000000000000000000 ) ) ;
#355 = DIRECTION ( 'NONE',  ( 0.0000000000000000000, 1.000000000000000000, 0.0000000000000000000 ) ) ;
#356 = CARTESIAN_POINT ( 'NONE',  ( 2.525000000000000400, -1.300000000000000000, -0.2000000000000000100 ) ) ;
#357 = LINE ( 'NONE', #179, #500 ) ;
#358 = ORIENTED_EDGE ( 'NONE', *, *, #183, .F. ) ;
#359 = ADVANCED_FACE ( 'NONE', ( #1 ), #72, .F. ) ;
#360 = PLANE ( 'NONE',  #330 ) ;
#361 = ORIENTED_EDGE ( 'NONE', *, *, #224, .F. ) ;
#362 = DIRECTION ( 'NONE',  ( -0.0000000000000000000, 0.0000000000000000000, -1.000000000000000000 ) ) ;
#363 = DIRECTION ( 'NONE',  ( -0.0000000000000000000, 0.0000000000000000000, -1.000000000000000000 ) ) ;
#364 = EDGE_CURVE ( 'NONE', #37, #435, #66, .T. ) ;
#365 = PERSON_AND_ORGANIZATION_ROLE ( 'creator' ) ;
#366 = DATE_TIME_ROLE ( 'creation_date' ) ;
#367 = CARTESIAN_POINT ( 'NONE',  ( -2.774999999999999500, 2.700000000000000200, -0.2000000000000000100 ) ) ;
#368 = VECTOR ( 'NONE', #209, 1000.000000000000000 ) ;
#369 = ORIENTED_EDGE ( 'NONE', *, *, #128, .T. ) ;
#370 = APPROVAL_PERSON_ORGANIZATION ( #193, #437, #61 ) ;
#371 = LINE ( 'NONE', #237, #381 ) ;
#372 = DIRECTION ( 'NONE',  ( -1.000000000000000000, 0.0000000000000000000, 0.0000000000000000000 ) ) ;
#373 = AXIS2_PLACEMENT_3D ( 'NONE', #269, #480, #324 ) ;
#374 = DIRECTION ( 'NONE',  ( -0.0000000000000000000, -1.000000000000000000, -0.0000000000000000000 ) ) ;
#375 = ORIENTED_EDGE ( 'NONE', *, *, #32, .F. ) ;
#376 = EDGE_CURVE ( 'NONE', #345, #521, #383, .T. ) ;
#377 = EDGE_LOOP ( 'NONE', ( #436, #333, #465, #553 ) ) ;
#378 = VECTOR ( 'NONE', #9, 1000.000000000000000 ) ;
#379 = ORIENTED_EDGE ( 'NONE', *, *, #515, .F. ) ;
#380 = ORIENTED_EDGE ( 'NONE', *, *, #475, .F. ) ;
#381 = VECTOR ( 'NONE', #297, 1000.000000000000000 ) ;
#382 = EDGE_CURVE ( 'NONE', #156, #282, #573, .T. ) ;
#383 = LINE ( 'NONE', #122, #75 ) ;
#384 = EDGE_LOOP ( 'NONE', ( #2, #317, #31, #538 ) ) ;
#385 = ORIENTED_EDGE ( 'NONE', *, *, #492, .F. ) ;
#386 = LINE ( 'NONE', #145, #605 ) ;
#387 = DIRECTION ( 'NONE',  ( 1.000000000000000000, 0.0000000000000000000, 0.0000000000000000000 ) ) ;
#388 = LINE ( 'NONE', #131, #261 ) ;
#389 = ORIENTED_EDGE ( 'NONE', *, *, #143, .T. ) ;
#390 = CARTESIAN_POINT ( 'NONE',  ( -3.100000000000000500, -3.450000000000000200, 5.799999999999999800 ) ) ;
#391 = EDGE_CURVE ( 'NONE', #479, #280, #87, .T. ) ;
#392 = CARTESIAN_POINT ( 'NONE',  ( 3.099999999999998300, 2.950000000000000200, 5.799999999999999800 ) ) ;
#393 = LINE ( 'NONE', #137, #194 ) ;
#394 = ADVANCED_FACE ( 'NONE', ( #123 ), #478, .T. ) ;
#395 = CARTESIAN_POINT ( 'NONE',  ( -3.600000000000000500, -3.450000000000000200, 5.799999999999999800 ) ) ;
#396 = CARTESIAN_POINT ( 'NONE',  ( 3.599999999999999600, -2.950000000000000600, 5.799999999999999800 ) ) ;
#397 = CC_DESIGN_PERSON_AND_ORGANIZATION_ASSIGNMENT ( #656, #365, ( #11 ) ) ;
#398 = ADVANCED_FACE ( 'NONE', ( #181 ), #223, .T. ) ;
#399 = LINE ( 'NONE', #608, #247 ) ;
#400 = DIRECTION ( 'NONE',  ( 1.000000000000000000, 0.0000000000000000000, 0.0000000000000000000 ) ) ;
#401 = ORIENTED_EDGE ( 'NONE', *, *, #325, .T. ) ;
#402 = CARTESIAN_POINT ( 'NONE',  ( -3.600000000000001400, 3.450000000000000200, 0.0000000000000000000 ) ) ;
#403 = EDGE_LOOP ( 'NONE', ( #585, #26, #564, #414 ) ) ;
#404 = DIRECTION ( 'NONE',  ( 0.0000000000000000000, -1.000000000000000000, -0.0000000000000000000 ) ) ;
#405 = EDGE_CURVE ( 'NONE', #156, #228, #644, .T. ) ;
#406 = CARTESIAN_POINT ( 'NONE',  ( 0.0000000000000000000, 0.0000000000000000000, 0.0000000000000000000 ) ) ;
#407 = CARTESIAN_POINT ( 'NONE',  ( 2.525000000000000400, 2.700000000000000200, -0.2000000000000000100 ) ) ;
#408 = ADVANCED_FACE ( 'NONE', ( #232 ), #49, .F. ) ;
#409 = APPROVAL_STATUS ( 'not_yet_approved' ) ;
#410 = VERTEX_POINT ( 'NONE', #93 ) ;
#411 = DIRECTION ( 'NONE',  ( -1.000000000000000000, 0.0000000000000000000, -0.0000000000000000000 ) ) ;
#412 = ORIENTED_EDGE ( 'NONE', *, *, #91, .T. ) ;
#413 = CARTESIAN_POINT ( 'NONE',  ( 2.525000000000000400, 2.700000000000000200, 0.0000000000000000000 ) ) ;
#414 = ORIENTED_EDGE ( 'NONE', *, *, #310, .T. ) ;
#415 = DIRECTION ( 'NONE',  ( 0.0000000000000000000, -0.0000000000000000000, 1.000000000000000000 ) ) ;
#416 = LOCAL_TIME ( 10, 29, 26.00000000000000000, #16 ) ;
#417 = CARTESIAN_POINT ( 'NONE',  ( 2.525000000000000400, -2.700000000000000200, -0.0000000000000000000 ) ) ;
#418 = EDGE_CURVE ( 'NONE', #106, #67, #399, .T. ) ;
#419 = LINE ( 'NONE', #167, #323 ) ;
#420 = ORIENTED_EDGE ( 'NONE', *, *, #285, .F. ) ;
#421 = CARTESIAN_POINT ( 'NONE',  ( 2.525000000000000400, -1.300000000000000000, -0.2000000000000000100 ) ) ;
#422 = APPROVAL_DATE_TIME ( #557, #481 ) ;
#423 = SHAPE_DEFINITION_REPRESENTATION ( #505, #647 ) ;
#424 = CARTESIAN_POINT ( 'NONE',  ( -3.100000000000001000, 3.450000000000000200, 5.799999999999999800 ) ) ;
#425 = AXIS2_PLACEMENT_3D ( 'NONE', #327, #575, #271 ) ;
#426 = LINE ( 'NONE', #499, #563 ) ;
#427 = VERTEX_POINT ( 'NONE', #92 ) ;
#428 = DIRECTION ( 'NONE',  ( 0.0000000000000000000, 0.0000000000000000000, -1.000000000000000000 ) ) ;
#429 = EDGE_CURVE ( 'NONE', #36, #203, #154, .T. ) ;
#430 = EDGE_LOOP ( 'NONE', ( #369, #234, #646, #138 ) ) ;
#431 = CLOSED_SHELL ( 'NONE', ( #94, #6, #546, #42, #47, #394, #614, #459, #242, #207, #654, #12, #159, #502, #616, #408, #449, #359, #251, #398 ) ) ;
#432 = PERSON_AND_ORGANIZATION ( #470, #301 ) ;
#433 = EDGE_CURVE ( 'NONE', #594, #228, #172, .T. ) ;
#434 = LINE ( 'NONE', #461, #164 ) ;
#435 = VERTEX_POINT ( 'NONE', #444 ) ;
#436 = ORIENTED_EDGE ( 'NONE', *, *, #661, .T. ) ;
#437 = APPROVAL ( #110, 'UNSPECIFIED' ) ;
#438 = PLANE ( 'NONE',  #498 ) ;
#439 = PERSON_AND_ORGANIZATION ( #470, #301 ) ;
#440 = CIRCLE ( 'NONE', #632, 0.5000000000000000000 ) ;
#441 = EDGE_CURVE ( 'NONE', #435, #129, #426, .T. ) ;
#442 = LINE ( 'NONE', #322, #368 ) ;
#443 = EDGE_LOOP ( 'NONE', ( #496, #380, #25, #495 ) ) ;
#444 = CARTESIAN_POINT ( 'NONE',  ( 3.099999999999999200, -3.450000000000000200, 0.0000000000000000000 ) ) ;
#445 = ORIENTED_EDGE ( 'NONE', *, *, #294, .F. ) ;
#446 = ORIENTED_EDGE ( 'NONE', *, *, #224, .T. ) ;
#447 = CARTESIAN_POINT ( 'NONE',  ( -2.774999999999999500, 1.300000000000000000, -0.2000000000000000100 ) ) ;
#448 = AXIS2_PLACEMENT_3D ( 'NONE', #70, #65, #162 ) ;
#449 = ADVANCED_FACE ( 'NONE', ( #313 ), #135, .F. ) ;
#450 = DIRECTION ( 'NONE',  ( -0.0000000000000000000, -0.0000000000000000000, 1.000000000000000000 ) ) ;
#451 = DIRECTION ( 'NONE',  ( 0.0000000000000000000, -0.0000000000000000000, 1.000000000000000000 ) ) ;
#452 = LINE ( 'NONE', #59, #628 ) ;
#453 = VECTOR ( 'NONE', #604, 1000.000000000000000 ) ;
#454 = DIRECTION ( 'NONE',  ( 0.0000000000000000000, -0.0000000000000000000, 1.000000000000000000 ) ) ;
#455 = EDGE_CURVE ( 'NONE', #288, #282, #371, .T. ) ;
#456 = DIRECTION ( 'NONE',  ( 0.0000000000000000000, 1.000000000000000000, 0.0000000000000000000 ) ) ;
#457 = PLANE ( 'NONE',  #176 ) ;
#458 = CARTESIAN_POINT ( 'NONE',  ( 2.525000000000000400, -2.700000000000000200, -0.2000000000000000100 ) ) ;
#459 = ADVANCED_FACE ( 'NONE', ( #100 ), #236, .T. ) ;
#460 = DIRECTION ( 'NONE',  ( -0.0000000000000000000, 1.000000000000000000, -0.0000000000000000000 ) ) ;
#461 = CARTESIAN_POINT ( 'NONE',  ( -3.600000000000000500, -3.450000000000000200, 0.0000000000000000000 ) ) ;
#462 = AXIS2_PLACEMENT_3D ( 'NONE', #406, #17, #568 ) ;
#463 = VECTOR ( 'NONE', #372, 1000.000000000000000 ) ;
#464 = PLANE ( 'NONE',  #163 ) ;
#465 = ORIENTED_EDGE ( 'NONE', *, *, #492, .T. ) ;
#466 = VERTEX_POINT ( 'NONE', #390 ) ;
#467 = ORIENTED_EDGE ( 'NONE', *, *, #382, .F. ) ;
#468 = SECURITY_CLASSIFICATION_LEVEL ( 'unclassified' ) ;
#469 = CARTESIAN_POINT ( 'NONE',  ( 0.0000000000000000000, 0.0000000000000000000, 0.0000000000000000000 ) ) ;
#470 = PERSON ( 'UNSPECIFIED', 'UNSPECIFIED', 'UNSPECIFIED', ('UNSPECIFIED'), ('UNSPECIFIED'), ('UNSPECIFIED') ) ;
#471 = EDGE_CURVE ( 'NONE', #48, #511, #393, .T. ) ;
#472 = APPROVAL_DATE_TIME ( #27, #437 ) ;
#473 = DIRECTION ( 'NONE',  ( -0.0000000000000000000, 0.0000000000000000000, 1.000000000000000000 ) ) ;
#474 = CARTESIAN_POINT ( 'NONE',  ( -2.774999999999999500, 2.700000000000000200, -0.2000000000000000100 ) ) ;
#475 = EDGE_CURVE ( 'NONE', #36, #280, #491, .T. ) ;
#476 = FACE_OUTER_BOUND ( 'NONE', #589, .T. ) ;
#477 = ORIENTED_EDGE ( 'NONE', *, *, #325, .F. ) ;
#478 = PLANE ( 'NONE',  #448 ) ;
#479 = VERTEX_POINT ( 'NONE', #38 ) ;
#480 = DIRECTION ( 'NONE',  ( 0.0000000000000000000, -0.0000000000000000000, -1.000000000000000000 ) ) ;
#481 = APPROVAL ( #409, 'UNSPECIFIED' ) ;
#482 = CYLINDRICAL_SURFACE ( 'NONE', #576, 0.5000000000000000000 ) ;
#483 = CARTESIAN_POINT ( 'NONE',  ( -3.100000000000001000, 3.450000000000000200, 0.0000000000000000000 ) ) ;
#484 = DIRECTION ( 'NONE',  ( 1.000000000000000000, -0.0000000000000000000, -0.0000000000000000000 ) ) ;
#485 = EDGE_CURVE ( 'NONE', #203, #13, #504, .T. ) ;
#486 = EDGE_LOOP ( 'NONE', ( #544, #332, #389, #316, #613, #211, #235, #611 ) ) ;
#487 = EDGE_LOOP ( 'NONE', ( #58, #652, #337, #117 ) ) ;
#488 = CYLINDRICAL_SURFACE ( 'NONE', #283, 0.5000000000000000000 ) ;
#489 = PRODUCT_RELATED_PRODUCT_CATEGORY ( 'detail', '', ( #225 ) ) ;
#490 = ORIENTED_EDGE ( 'NONE', *, *, #294, .T. ) ;
#491 = LINE ( 'NONE', #447, #328 ) ;
#492 = EDGE_CURVE ( 'NONE', #345, #48, #215, .T. ) ;
#493 = PLANE ( 'NONE',  #214 ) ;
#494 = CARTESIAN_POINT ( 'NONE',  ( -2.774999999999999500, 2.700000000000000200, -0.2000000000000000100 ) ) ;
#495 = ORIENTED_EDGE ( 'NONE', *, *, #32, .T. ) ;
#496 = ORIENTED_EDGE ( 'NONE', *, *, #391, .T. ) ;
#497 = LINE ( 'NONE', #659, #21 ) ;
#498 = AXIS2_PLACEMENT_3D ( 'NONE', #233, #292, #98 ) ;
#499 = CARTESIAN_POINT ( 'NONE',  ( 3.099999999999999200, -3.450000000000000200, 5.799999999999999800 ) ) ;
#500 = VECTOR ( 'NONE', #62, 1000.000000000000000 ) ;
#501 = ORIENTED_EDGE ( 'NONE', *, *, #542, .F. ) ;
#502 = ADVANCED_FACE ( 'NONE', ( #152 ), #342, .F. ) ;
#503 = ORIENTED_EDGE ( 'NONE', *, *, #429, .F. ) ;
#504 = LINE ( 'NONE', #494, #291 ) ;
#505 = PRODUCT_DEFINITION_SHAPE ( 'NONE', 'NONE',  #11 ) ;
#506 = CARTESIAN_POINT ( 'NONE',  ( -3.600000000000001400, 3.450000000000000200, 5.799999999999999800 ) ) ;
#507 = AXIS2_PLACEMENT_3D ( 'NONE', #86, #404, #354 ) ;
#508 = CARTESIAN_POINT ( 'NONE',  ( 2.525000000000000400, -1.300000000000000000, -0.2000000000000000100 ) ) ;
#509 = DIRECTION ( 'NONE',  ( 1.257045997084642900E-016, -1.000000000000000000, 0.0000000000000000000 ) ) ;
#510 = VECTOR ( 'NONE', #549, 1000.000000000000000 ) ;
#511 = VERTEX_POINT ( 'NONE', #597 ) ;
#512 = CARTESIAN_POINT ( 'NONE',  ( -2.774999999999999500, -2.700000000000000200, 0.0000000000000000000 ) ) ;
#513 = VERTEX_POINT ( 'NONE', #302 ) ;
#514 = CARTESIAN_POINT ( 'NONE',  ( 3.099999999999998300, 3.450000000000000200, 5.799999999999999800 ) ) ;
#515 = EDGE_CURVE ( 'NONE', #521, #190, #180, .T. ) ;
#516 = CARTESIAN_POINT ( 'NONE',  ( -2.774999999999999500, -2.700000000000000200, -0.2000000000000000100 ) ) ;
#517 =( NAMED_UNIT ( * ) SI_UNIT ( $, .STERADIAN. ) SOLID_ANGLE_UNIT ( ) );
#518 = CARTESIAN_POINT ( 'NONE',  ( -3.600000000000000500, -2.949999999999998800, 0.0000000000000000000 ) ) ;
#519 = LINE ( 'NONE', #552, #453 ) ;
#520 = ORIENTED_EDGE ( 'NONE', *, *, #364, .T. ) ;
#521 = VERTEX_POINT ( 'NONE', #188 ) ;
#522 = AXIS2_PLACEMENT_3D ( 'NONE', #458, #599, #348 ) ;
#523 = COORDINATED_UNIVERSAL_TIME_OFFSET ( 8, 0, .AHEAD. ) ;
#524 = MECHANICAL_CONTEXT ( 'NONE', #565, 'mechanical' ) ;
#525 = EDGE_CURVE ( 'NONE', #189, #345, #353, .T. ) ;
#526 = VECTOR ( 'NONE', #610, 1000.000000000000000 ) ;
#527 = ORIENTED_EDGE ( 'NONE', *, *, #405, .T. ) ;
#528 = ORIENTED_EDGE ( 'NONE', *, *, #44, .F. ) ;
#529 = DIRECTION ( 'NONE',  ( 0.0000000000000000000, -0.0000000000000000000, -1.000000000000000000 ) ) ;
#530 =( GEOMETRIC_REPRESENTATION_CONTEXT ( 3 ) GLOBAL_UNCERTAINTY_ASSIGNED_CONTEXT ( ( #326 ) ) GLOBAL_UNIT_ASSIGNED_CONTEXT ( ( #213, #158, #517 ) ) REPRESENTATION_CONTEXT ( 'NONE', 'WORKASPACE' ) );
#531 = LINE ( 'NONE', #148, #309 ) ;
#532 = FACE_OUTER_BOUND ( 'NONE', #443, .T. ) ;
#533 = ORIENTED_EDGE ( 'NONE', *, *, #102, .T. ) ;
#534 = EDGE_CURVE ( 'NONE', #222, #410, #440, .T. ) ;
#535 = CALENDAR_DATE ( 2020, 8, 9 ) ;
#536 = LINE ( 'NONE', #20, #219 ) ;
#537 = AXIS2_PLACEMENT_3D ( 'NONE', #347, #35, #593 ) ;
#538 = ORIENTED_EDGE ( 'NONE', *, *, #285, .T. ) ;
#539 = ORIENTED_EDGE ( 'NONE', *, *, #455, .F. ) ;
#540 = DIRECTION ( 'NONE',  ( 0.0000000000000000000, -1.000000000000000000, 0.0000000000000000000 ) ) ;
#541 = PERSON_AND_ORGANIZATION ( #470, #301 ) ;
#542 = EDGE_CURVE ( 'NONE', #346, #115, #127, .T. ) ;
#543 = DIRECTION ( 'NONE',  ( -0.0000000000000000000, -1.000000000000000000, -0.0000000000000000000 ) ) ;
#544 = ORIENTED_EDGE ( 'NONE', *, *, #258, .T. ) ;
#545 = ORIENTED_EDGE ( 'NONE', *, *, #418, .F. ) ;
#546 = ADVANCED_FACE ( 'NONE', ( #624 ), #657, .F. ) ;
#547 = AXIS2_PLACEMENT_3D ( 'NONE', #139, #293, #387 ) ;
#548 = DIRECTION ( 'NONE',  ( 0.0000000000000000000, 0.0000000000000000000, -1.000000000000000000 ) ) ;
#549 = DIRECTION ( 'NONE',  ( 1.257045997084642900E-016, -1.000000000000000000, 0.0000000000000000000 ) ) ;
#550 = LINE ( 'NONE', #308, #304 ) ;
#551 = DIRECTION ( 'NONE',  ( -1.000000000000000000, 0.0000000000000000000, 0.0000000000000000000 ) ) ;
#552 = CARTESIAN_POINT ( 'NONE',  ( 3.599999999999998800, 2.950000000000000200, 5.799999999999999800 ) ) ;
#553 = ORIENTED_EDGE ( 'NONE', *, *, #471, .T. ) ;
#554 = EDGE_CURVE ( 'NONE', #466, #129, #531, .T. ) ;
#555 = ORIENTED_EDGE ( 'NONE', *, *, #554, .F. ) ;
#556 = DIRECTION ( 'NONE',  ( -0.0000000000000000000, 0.0000000000000000000, 1.000000000000000000 ) ) ;
#557 = DATE_AND_TIME ( #169, #306 ) ;
#558 = DIRECTION ( 'NONE',  ( 1.257045997084642900E-016, -1.000000000000000000, 0.0000000000000000000 ) ) ;
#559 = CARTESIAN_POINT ( 'NONE',  ( -2.774999999999999500, -2.700000000000000200, -0.2000000000000000100 ) ) ;
#560 = CC_DESIGN_APPROVAL ( #481, ( #349 ) ) ;
#561 = CARTESIAN_POINT ( 'NONE',  ( -2.774999999999999500, 2.700000000000000200, 0.0000000000000000000 ) ) ;
#562 = CARTESIAN_POINT ( 'NONE',  ( -2.774999999999999500, -2.700000000000000200, 0.0000000000000000000 ) ) ;
#563 = VECTOR ( 'NONE', #41, 1000.000000000000000 ) ;
#564 = ORIENTED_EDGE ( 'NONE', *, *, #455, .T. ) ;
#565 = APPLICATION_CONTEXT ( 'configuration controlled 3d designs of mechanical parts and assemblies' ) ;
#566 = ORIENTED_EDGE ( 'NONE', *, *, #433, .T. ) ;
#567 = CARTESIAN_POINT ( 'NONE',  ( 3.599999999999999600, -2.949999999999998800, 5.799999999999999800 ) ) ;
#568 = DIRECTION ( 'NONE',  ( 1.000000000000000000, 0.0000000000000000000, 0.0000000000000000000 ) ) ;
#569 = DIRECTION ( 'NONE',  ( -1.000000000000000000, 0.0000000000000000000, 0.0000000000000000000 ) ) ;
#570 = DIRECTION ( 'NONE',  ( 1.000000000000000000, 0.0000000000000000000, 0.0000000000000000000 ) ) ;
#571 = AXIS2_PLACEMENT_3D ( 'NONE', #99, #196, #509 ) ;
#572 = CARTESIAN_POINT ( 'NONE',  ( 3.099999999999998300, 2.950000000000000200, 0.0000000000000000000 ) ) ;
#573 = CIRCLE ( 'NONE', #290, 0.5000000000000000000 ) ;
#574 = ORIENTED_EDGE ( 'NONE', *, *, #276, .T. ) ;
#575 = DIRECTION ( 'NONE',  ( -1.000000000000000000, 0.0000000000000000000, 0.0000000000000000000 ) ) ;
#576 = AXIS2_PLACEMENT_3D ( 'NONE', #254, #307, #551 ) ;
#577 = PERSON_AND_ORGANIZATION ( #470, #301 ) ;
#578 = DIRECTION ( 'NONE',  ( 0.0000000000000000000, 0.0000000000000000000, -1.000000000000000000 ) ) ;
#579 = DIRECTION ( 'NONE',  ( -1.257045997084642900E-016, 1.000000000000000000, -0.0000000000000000000 ) ) ;
#580 = EDGE_CURVE ( 'NONE', #280, #13, #84, .T. ) ;
#581 = CIRCLE ( 'NONE', #598, 0.5000000000000000000 ) ;
#582 = ORIENTED_EDGE ( 'NONE', *, *, #590, .F. ) ;
#583 = CARTESIAN_POINT ( 'NONE',  ( -3.100000000000001000, 2.950000000000000200, 0.0000000000000000000 ) ) ;
#584 = ORIENTED_EDGE ( 'NONE', *, *, #82, .F. ) ;
#585 = ORIENTED_EDGE ( 'NONE', *, *, #143, .F. ) ;
#586 = AXIS2_PLACEMENT_3D ( 'NONE', #469, #108, #264 ) ;
#587 = LINE ( 'NONE', #424, #344 ) ;
#588 = ORIENTED_EDGE ( 'NONE', *, *, #534, .F. ) ;
#589 = EDGE_LOOP ( 'NONE', ( #539, #490, #182, #520, #241, #566, #14, #88 ) ) ;
#590 = EDGE_CURVE ( 'NONE', #511, #106, #109, .T. ) ;
#591 = FACE_OUTER_BOUND ( 'NONE', #384, .T. ) ;
#592 = EDGE_LOOP ( 'NONE', ( #274, #141, #240, #601 ) ) ;
#593 = DIRECTION ( 'NONE',  ( 0.0000000000000000000, 0.0000000000000000000, -1.000000000000000000 ) ) ;
#594 = VERTEX_POINT ( 'NONE', #101 ) ;
#595 = PERSON_AND_ORGANIZATION ( #470, #301 ) ;
#596 = CC_DESIGN_PERSON_AND_ORGANIZATION_ASSIGNMENT ( #595, #321, ( #349 ) ) ;
#597 = CARTESIAN_POINT ( 'NONE',  ( 2.525000000000000400, -2.700000000000000200, -0.2000000000000000100 ) ) ;
#598 = AXIS2_PLACEMENT_3D ( 'NONE', #155, #473, #319 ) ;
#599 = DIRECTION ( 'NONE',  ( 0.0000000000000000000, 1.000000000000000000, 0.0000000000000000000 ) ) ;
#600 = FACE_BOUND ( 'NONE', #184, .T. ) ;
#601 = ORIENTED_EDGE ( 'NONE', *, *, #23, .F. ) ;
#602 = DIRECTION ( 'NONE',  ( 1.000000000000000000, -0.0000000000000000000, -0.0000000000000000000 ) ) ;
#603 = EDGE_LOOP ( 'NONE', ( #140, #81, #503, #157 ) ) ;
#604 = DIRECTION ( 'NONE',  ( -0.0000000000000000000, -0.0000000000000000000, 1.000000000000000000 ) ) ;
#605 = VECTOR ( 'NONE', #246, 1000.000000000000000 ) ;
#606 = AXIS2_PLACEMENT_3D ( 'NONE', #205, #318, #7 ) ;
#607 = CARTESIAN_POINT ( 'NONE',  ( 2.525000000000000400, -2.700000000000000200, -0.2000000000000000100 ) ) ;
#608 = CARTESIAN_POINT ( 'NONE',  ( 2.525000000000000400, -2.700000000000000200, -0.0000000000000000000 ) ) ;
#609 = CYLINDRICAL_SURFACE ( 'NONE', #29, 0.5000000000000000000 ) ;
#610 = DIRECTION ( 'NONE',  ( -0.0000000000000000000, -0.0000000000000000000, 1.000000000000000000 ) ) ;
#611 = ORIENTED_EDGE ( 'NONE', *, *, #648, .T. ) ;
#612 = EDGE_CURVE ( 'NONE', #67, #521, #284, .T. ) ;
#613 = ORIENTED_EDGE ( 'NONE', *, *, #626, .T. ) ;
#614 = ADVANCED_FACE ( 'NONE', ( #51 ), #482, .T. ) ;
#615 = CARTESIAN_POINT ( 'NONE',  ( -3.600000000000001400, 2.950000000000000200, 0.0000000000000000000 ) ) ;
#616 = ADVANCED_FACE ( 'NONE', ( #591 ), #360, .T. ) ;
#617 = DIRECTION ( 'NONE',  ( -1.257045997084642900E-016, 1.000000000000000000, -0.0000000000000000000 ) ) ;
#618 = LINE ( 'NONE', #105, #30 ) ;
#619 = APPLICATION_CONTEXT ( 'configuration controlled 3d designs of mechanical parts and assemblies' ) ;
#620 = ORIENTED_EDGE ( 'NONE', *, *, #168, .F. ) ;
#621 = CC_DESIGN_DATE_AND_TIME_ASSIGNMENT ( #340, #366, ( #11 ) ) ;
#622 = DESIGN_CONTEXT ( 'detailed design', #619, 'design' ) ;
#623 = APPROVAL_STATUS ( 'not_yet_approved' ) ;
#624 = FACE_OUTER_BOUND ( 'NONE', #287, .T. ) ;
#625 = CARTESIAN_POINT ( 'NONE',  ( -2.774999999999999500, 1.300000000000000000, 0.0000000000000000000 ) ) ;
#626 = EDGE_CURVE ( 'NONE', #410, #39, #497, .T. ) ;
#627 = DIRECTION ( 'NONE',  ( 0.0000000000000000000, -1.000000000000000000, 0.0000000000000000000 ) ) ;
#628 = VECTOR ( 'NONE', #257, 1000.000000000000000 ) ;
#629 = ORIENTED_EDGE ( 'NONE', *, *, #441, .T. ) ;
#630 = ORIENTED_EDGE ( 'NONE', *, *, #343, .F. ) ;
#631 = DIRECTION ( 'NONE',  ( -0.0000000000000000000, -0.0000000000000000000, 1.000000000000000000 ) ) ;
#632 = AXIS2_PLACEMENT_3D ( 'NONE', #52, #556, #248 ) ;
#633 = VECTOR ( 'NONE', #355, 1000.000000000000000 ) ;
#634 = DIRECTION ( 'NONE',  ( 1.000000000000000000, 0.0000000000000000000, 0.0000000000000000000 ) ) ;
#635 = LINE ( 'NONE', #111, #378 ) ;
#636 = ORIENTED_EDGE ( 'NONE', *, *, #580, .F. ) ;
#637 = ORIENTED_EDGE ( 'NONE', *, *, #276, .F. ) ;
#638 = EDGE_CURVE ( 'NONE', #305, #36, #386, .T. ) ;
#639 = APPROVAL_PERSON_ORGANIZATION ( #439, #481, #216 ) ;
#640 = LINE ( 'NONE', #268, #170 ) ;
#641 = CC_DESIGN_SECURITY_CLASSIFICATION ( #349, ( #239 ) ) ;
#642 = PLANE ( 'NONE',  #571 ) ;
#643 = DIRECTION ( 'NONE',  ( 0.0000000000000000000, 0.0000000000000000000, -1.000000000000000000 ) ) ;
#644 = LINE ( 'NONE', #402, #510 ) ;
#645 = ORIENTED_EDGE ( 'NONE', *, *, #335, .F. ) ;
#646 = ORIENTED_EDGE ( 'NONE', *, *, #258, .F. ) ;
#647 = ADVANCED_BREP_SHAPE_REPRESENTATION ( 'EXL1V0606', ( #24, #462 ), #530 ) ;
#648 = EDGE_CURVE ( 'NONE', #129, #201, #341, .T. ) ;
#649 = DIRECTION ( 'NONE',  ( -0.0000000000000000000, -0.0000000000000000000, 1.000000000000000000 ) ) ;
#650 = ORIENTED_EDGE ( 'NONE', *, *, #168, .T. ) ;
#651 = DIRECTION ( 'NONE',  ( -1.000000000000000000, 0.0000000000000000000, 0.0000000000000000000 ) ) ;
#652 = ORIENTED_EDGE ( 'NONE', *, *, #376, .F. ) ;
#653 = DIRECTION ( 'NONE',  ( 0.0000000000000000000, 1.000000000000000000, 0.0000000000000000000 ) ) ;
#654 = ADVANCED_FACE ( 'NONE', ( #256 ), #464, .F. ) ;
#655 = AXIS2_PLACEMENT_3D ( 'NONE', #474, #570, #8 ) ;
#656 = PERSON_AND_ORGANIZATION ( #470, #301 ) ;
#657 = PLANE ( 'NONE',  #40 ) ;
#658 = CARTESIAN_POINT ( 'NONE',  ( -3.600000000000000500, -2.949999999999998800, 5.799999999999999800 ) ) ;
#659 = CARTESIAN_POINT ( 'NONE',  ( -3.600000000000001400, 3.450000000000000200, 5.799999999999999800 ) ) ;
#660 = DIRECTION ( 'NONE',  ( -0.0000000000000000000, -0.0000000000000000000, 1.000000000000000000 ) ) ;
#661 = EDGE_CURVE ( 'NONE', #511, #189, #640, .T. ) ;
ENDSEC;
END-ISO-10303-21;
